<svg height="512pt" viewBox="0 -82 512 512" width="512pt" xmlns="http://www.w3.org/2000/svg"><path d="m261.621094 279.082031c-6.257813 3.082031-13.25 4.710938-20.226563 4.710938-6.972656 0-13.964843-1.628907-20.222656-4.710938l-131.339844-64.6875v41.9375c0 5.8125 3.304688 11.121094 8.515625 13.6875l136.304688 67.136719c2.125 1.046875 4.433594 1.570312 6.742187 1.570312 2.308594 0 4.617188-.523437 6.742188-1.570312l136.304687-67.136719c5.214844-2.566406 8.515625-7.875 8.515625-13.6875v-41.9375zm0 0"/><path d="m280.5625 141.898438c-6.125 15.660156-21.367188 26.785156-39.167969 26.785156-23.183593 0-42.042969-18.859375-42.042969-42.042969s18.859376-42.046875 42.042969-42.046875c17.800781 0 33.042969 11.128906 39.167969 26.789062h190.523438l-222.949219-109.8125c-4.25-2.09375-9.230469-2.09375-13.484375 0l-226.136719 111.382813c-5.214844 2.566406-8.515625 7.875-8.515625 13.6875s3.300781 11.117187 8.515625 13.6875l226.136719 111.378906c2.125 1.046875 4.433594 1.570313 6.742187 1.570313 2.308594 0 4.617188-.523438 6.742188-1.570313l222.949219-109.808593zm0 0"/><path d="m482.789062 243.773438v-73.625l-30.515624 15.03125v58.59375c-17.023438 6.238281-29.207032 22.609374-29.207032 41.769531v46.910156c0 8.425781 6.832032 15.257813 15.257813 15.257813h58.417969c8.425781 0 15.257812-6.832032 15.257812-15.257813v-46.910156c0-19.164063-12.183594-35.53125-29.210938-41.769531zm0 0"/></svg>